<svg xmlns="http://www.w3.org/2000/svg" xmlns:xlink="http://www.w3.org/1999/xlink" version="1.1" width="256" height="256" viewBox="0 0 256 256" xml:space="preserve">
<desc>Created with Fabric.js 1.7.22</desc>
<defs>
</defs>
<g transform="translate(128 128) scale(0.72 0.72)" style="">
	<g style="stroke: none; stroke-width: 0; stroke-dasharray: none; stroke-linecap: butt; stroke-linejoin: miter; stroke-miterlimit: 10; fill: none; fill-rule: nonzero; opacity: 1;" transform="translate(-175.05 -175.05000000000004) scale(3.89 3.89)" >
	<path d="M 82.861 45.817 l -7.567 -22.189 c -0.186 -0.546 -0.599 -0.985 -1.132 -1.204 L 47.179 11.321 v -1.073 c 1.944 -0.792 3.318 -2.703 3.318 -4.929 C 50.497 2.386 48.111 0 45.179 0 c -1.576 0 -3.061 0.692 -4.074 1.899 c -0.71 0.846 -0.6 2.107 0.246 2.818 c 0.846 0.709 2.107 0.601 2.818 -0.246 C 44.419 4.172 44.788 4 45.179 4 c 0.727 0 1.318 0.592 1.318 1.319 s -0.591 1.319 -1.318 1.319 c -1.104 0 -2 0.896 -2 2 v 2.536 l -27.341 11.25 c -0.533 0.219 -0.946 0.658 -1.132 1.204 L 7.138 45.817 c -0.173 0.509 -0.135 1.066 0.107 1.546 c 0.242 0.48 0.667 0.843 1.18 1.006 l 11.303 3.593 V 88 c 0 1.104 0.896 2 2 2 h 46.543 c 1.104 0 2 -0.896 2 -2 V 51.962 l 11.303 -3.593 c 0.513 -0.163 0.938 -0.525 1.181 -1.006 C 82.997 46.884 83.035 46.326 82.861 45.817 z M 36.327 18.319 L 45 14.75 l 8.954 3.684 C 48.47 22.123 42.658 22.084 36.327 18.319 z M 54.922 22.572 c -1.83 3.984 -5.988 5.84 -9.922 5.84 c -4.08 0 -8.402 -1.997 -10.116 -6.293 C 41.936 26.125 48.646 26.274 54.922 22.572 z M 70.271 47.765 v -6.011 c 0 -1.104 -0.896 -2 -2 -2 s -2 0.896 -2 2 v 8.745 V 86 H 23.728 V 50.499 v -8.745 c 0 -1.104 -0.896 -2 -2 -2 s -2 0.896 -2 2 v 6.011 l -8.145 -2.589 l 6.616 -19.397 l 12.183 -5.013 C 31.729 28.417 38.392 32.412 45 32.412 c 6.608 0 13.271 -3.995 14.618 -11.647 l 12.184 5.013 l 6.615 19.397 L 70.271 47.765 z" style="stroke: none; stroke-width: 1; stroke-dasharray: none; stroke-linecap: butt; stroke-linejoin: miter; stroke-miterlimit: 10; fill: rgb(0,0,0); fill-rule: nonzero; opacity: 1;" transform=" matrix(1 0 0 1 0 0) " stroke-linecap="round" />
</g>
</g>
</svg>